<svg xmlns="http://www.w3.org/2000/svg" viewBox="0 72 250 106">
  <path d="m248 74.6c-1.74-0.59-3.71-0.41-5.13 0.87-7.23 8.47-11.74 17.29-16.78 25.46-0.59-2.02-2.28-3.25-5.36-3.14-8.23 0.3-16.81 11.92-19.93 19.27-3.09 3.4-6.96 7.15-8.65 7.15-1.92 0-1.17-1.92-0.16-4.05l7.4-15.23c1.42-3.08 1.06-5.67-1.53-5.67-1.69 0-3.22 1.42-4.23 2.44-1.18-2.29-3.41-3.66-6.55-3.66-8.07 0-20.15 14.57-20 24 0 4.77 2.19 6.84 5.72 6.68 4.51-0.2 8.14-4.91 11.73-8.71-1.79 6.02-0.37 8.96 4.44 8.76 3.24-0.13 7.49-3.99 10.84-7.68-0.56 5.09 1.32 7.68 5.43 7.63 5.57-0.1 9.06-4.86 13.27-10.44-2.48 6.94-0.61 10.54 4.3 10.34 6.12-0.25 14.24-9.84 20.42-17.91 1.87-2.69 1.87-3.24 0.71-3.65-1.27-0.5-2.23 0.56-3.7 2.74-5.47 7.03-11.5 13.61-13.83 13.71-2.08 0.1-1.67-2.89 0.86-8.46 6.02-12.34 14.19-24.93 20.47-33.65 2.02-2.89 2.07-5.87 0.26-6.8zm-73.07 47.8c-1.52-1.88 1.92-9.94 7.39-16.12 3.13-3.49 5.82-4.66 7.35-4.2 1.73 0.55 1.37 3.74-2.54 9.31-3.64 5.12-10.38 13.03-12.2 11.01zm48.03-15.36c-4.2 7.77-10.99 16.04-14.83 16.19-2.39 0.1-0.96-7.09 5.06-14.48 3.64-4.51 6.78-6.33 8.51-6.23 2.07 0.1 2.43 1.82 1.26 4.52z" fill="#FF008A"/>
  <path d="m229.2 138.9h-3.24v-0.15h-5.12v-0.15h-4.66v-0.15h-5.72v-0.15h-13.52v-0.15h-10.19v0.15h-4.81v-0.15h-9.28v-0.25h-16.91v0.2h-3.64v0.15h-5.87v0.15h-3.14v0.2h-3.64v0.15h-5.42l6.02-13.71c1.17 2.74 3.86 4.06 7.29 3.86 9.13-0.61 20.4-12.49 20.4-23.23 0-5.67-3.49-7.65-6.78-7.55-1.22 0.05-2.13 0.3-2.99 0.76h-1.52l-5.37 3.24c0.96-2.99-0.25-4.1-2.28-4-1.87 0.1-3.25 0.81-4.26 2.84-2.69 2.64-6.69 4.11-9.83 5.02 0.26-5.52-2.38-8.36-6.78-8.26-7.77 0.2-15.69 10.39-18.43 19.11-3.79 4.66-7.43 7.8-9.16 7.8-1.57 0-1.11-2.53 1.01-7.29 2.99-6.69 6.89-13.43 10.18-19.65l8.52-1.06c2.79-0.41 3.4-1.73 3.1-2.95-0.26-1.06-1.78-1.06-3.05-0.86l-6.38 0.76h-0.36c1.37-2.69 2.64-4.97 3.71-6.99 1.27-2.54 0.1-3.86-2.33-3.86h-1.12c-1.37 0-2.33 0.97-3.39 2.94l-4.82 8.02-9.33 0.35c-1.87 0.05-2.48 0.81-2.43 1.78 0.05 1.32 1.01 1.98 3.09 1.98l6.43-0.1c-3.04 5.42-8.1 14.49-11.39 19.56-1.83 2.33-3.65 4.35-5.18 5.82 1.12-5.17 1.07-12.99 2.13-19.22 0.71-3.49 0.81-5.16-2.33-5.87-2.53-0.55-4.16 1.12-5.73 3.5-6.53 8.67-15.91 21.7-20.62 24.49-1.92 1.11-2.38 0-1.21-2.39 2.23-4.61 5.87-10.48 7.54-13.82 1.92-3.69 1.06-6.07-1.52-6.07-2.43 0-4.31 2.38-6.33 5.97-2.59 4.71-5.38 9.73-7.5 14.24-2.08 4.66 1.01 6.99 3.85 6.99 4.15 0 8.05-3.19 11.85-7.7-0.15 4.26 4.36 7.7 9.43 7.7 5.97 0 10.94-3.9 15.5-9.12-1.92 6.13 0.1 8.57 4.51 8.37 3.9-0.2 7.8-3.69 11.6-8.05-0.2 5.22 2.43 7.5 6.99 7.4 8.27-0.25 14.45-9.38 18.3-19.11 2.89-2.23 6.18-3.3 9.37-4.72l-16.27 32.73c-24.3 1.52-47.02 4.76-68.13 11.69-11.12 3.75-21.81 7.95-29.58 14.89-3.64 3.34-5.51 8.71-2.37 10.53 1.67 0.91 3.95-0.25 5.57-1.77 12.29-10.79 37.56-18.61 60.48-23.37 10.24-2.28 20.73-4.05 32-5.22l-3.29 9.89c-0.81 2.94-0.81 5.98 1.62 6.08h0.96c1.32 0 1.93-0.81 2.64-2.93l4.91-13.13c6.18-0.71 12.66-1.31 19.8-1.77v-0.15h4.26v-0.15h9.78v-0.15h13.32v-0.15h18.65v-0.15h15.65v0.15h6.33v0.15h10.39c1.93 0 2.99-3.94 0.04-3.94zm-154.2-13.2c-3.14-0.61-5.01-1.92-5.01-4.1 4-4.61 7.8-10.58 10.94-15.19-0.76 4.71-0.86 12.19-1.88 17.31-0.45 1.87-1.77 2.38-4.05 1.98zm43.26-1.21c-2.53 0.5-2.53-4.51 0-10.18 2.64-5.82 7.15-11.19 10.44-11.59 1.27-0.2 1.67 0.97 1.32 2.69-1.32 1.27-2.69 3.55-1.73 5.47-2.07 6.28-6.58 12.96-10.03 13.61zm28.33-0.41c-2.79 0.31-4.41-1.87-4.06-4 4.61-10.09 11.3-17.02 16.11-17.02 2.13 0 2.99 1.42 2.13 4.81-2.08 7.19-9.6 15.71-14.18 16.21z" fill="#FF008A"/>
  <path d="m69.7 90.63c-2.89 1.42-3.95 5.98-2.08 7.3 1.72 1.27 4.41 0.81 5.68-0.46 1.82-1.82 2.08-4.56 0.96-6.38-0.91-1.32-3.34-1.17-4.56-0.46z" fill="#FF008A"/>
  <path d="m57.14 73.32c-2.53 0-3.8 0.86-5.52 4l-36.71 64.6c-1.42 1.01-5.78 2.53-9.83 5.27-3.04 1.62-3.7 3.04-3.45 5.32 0.41 2.79 3.2 4.11 5.48 3.55 3.9-1.01 11.23-5.42 15.08-9.16 8.67-1.87 18.56-3.14 30.74-4.05 3.9-0.3 4.26-2.03 4-3.35-0.35-1.32-2.17-1.67-4.81-1.32-7.97 0.61-9.03 0.46-11.87 0.86l-16.02 1.57 34.78-60.4c1.82-3.29 1.67-6.89-1.87-6.89z" fill="#FF008A"/>
</svg>
